solid OpenSCAD_Model
  facet normal -1 0 0
    outer loop
      vertex -6 -1 0
      vertex -6 -0.93845 2.5
      vertex -6 -0.93845 0
    endloop
  endfacet
  facet normal -1 -0 0
    outer loop
      vertex -6 -0.93845 2.5
      vertex -6 -1 0
      vertex -6 -1 2.5
    endloop
  endfacet
  facet normal -1 0 0
    outer loop
      vertex -6 10.9384 0
      vertex -6 11 2.5
      vertex -6 11 0
    endloop
  endfacet
  facet normal -1 -0 0
    outer loop
      vertex -6 11 2.5
      vertex -6 10.9384 0
      vertex -6 10.9384 2.5
    endloop
  endfacet
  facet normal -0 0 1
    outer loop
      vertex -6.92705 2.14683 2.5
      vertex -6 -0.93845 2.5
      vertex -5.07295 2.14683 2.5
    endloop
  endfacet
  facet normal 0 0 1
    outer loop
      vertex -6 -0.93845 2.5
      vertex -6.92705 2.14683 2.5
      vertex -6.49548 -0.979506 2.5
    endloop
  endfacet
  facet normal 0 0 1
    outer loop
      vertex -6.92705 2.14683 2.5
      vertex -8.41017 -0.494639 2.5
      vertex -6.49548 -0.979506 2.5
    endloop
  endfacet
  facet normal 0 0 1
    outer loop
      vertex -10.0637 0.585657 2.5
      vertex -6.92705 2.14683 2.5
      vertex -8.42705 3.23664 2.5
    endloop
  endfacet
  facet normal -0 0 1
    outer loop
      vertex -11.9182 4.01243 2.5
      vertex -8.42705 3.23664 2.5
      vertex -9 5 2.5
    endloop
  endfacet
  facet normal 0 0 1
    outer loop
      vertex -11.9182 5.98757 2.5
      vertex -8.42705 6.76336 2.5
      vertex -11.2768 7.85568 2.5
    endloop
  endfacet
  facet normal 0 0 1
    outer loop
      vertex -6.92705 2.14683 2.5
      vertex -10.0637 0.585657 2.5
      vertex -8.41017 -0.494639 2.5
    endloop
  endfacet
  facet normal 0 0 1
    outer loop
      vertex -8.42705 6.76336 2.5
      vertex -11.9182 5.98757 2.5
      vertex -9 5 2.5
    endloop
  endfacet
  facet normal 0 0 1
    outer loop
      vertex -8.42705 3.23664 2.5
      vertex -11.2768 2.14432 2.5
      vertex -10.0637 0.585657 2.5
    endloop
  endfacet
  facet normal 0 0 1
    outer loop
      vertex -11.9182 4.01243 2.5
      vertex -9 5 2.5
      vertex -11.9182 5.98757 2.5
    endloop
  endfacet
  facet normal 0 0 1
    outer loop
      vertex -8.42705 3.23664 2.5
      vertex -11.9182 4.01243 2.5
      vertex -11.2768 2.14432 2.5
    endloop
  endfacet
  facet normal -0 0 1
    outer loop
      vertex -3 5 2.5
      vertex 0 0 2.5
      vertex 0 11 2.5
    endloop
  endfacet
  facet normal -0 0 1
    outer loop
      vertex -3.57295 3.23664 2.5
      vertex 0 0 2.5
      vertex -3 5 2.5
    endloop
  endfacet
  facet normal 0 0 1
    outer loop
      vertex 0 11 2.5
      vertex -3.57295 6.76336 2.5
      vertex -3 5 2.5
    endloop
  endfacet
  facet normal 0 0 1
    outer loop
      vertex 0 11 2.5
      vertex -5.07295 7.85317 2.5
      vertex -3.57295 6.76336 2.5
    endloop
  endfacet
  facet normal 0 0 1
    outer loop
      vertex -6 10.9384 2.5
      vertex 0 11 2.5
      vertex -6 11 2.5
    endloop
  endfacet
  facet normal 0 0 1
    outer loop
      vertex 0 11 2.5
      vertex -6 10.9384 2.5
      vertex -5.07295 7.85317 2.5
    endloop
  endfacet
  facet normal 0 0 1
    outer loop
      vertex -6.92705 7.85317 2.5
      vertex -6 10.9384 2.5
      vertex -6.49548 10.9795 2.5
    endloop
  endfacet
  facet normal 0 0 1
    outer loop
      vertex -6 10.9384 2.5
      vertex -6.92705 7.85317 2.5
      vertex -5.07295 7.85317 2.5
    endloop
  endfacet
  facet normal -0 0 1
    outer loop
      vertex -8.41017 10.4946 2.5
      vertex -6.92705 7.85317 2.5
      vertex -6.49548 10.9795 2.5
    endloop
  endfacet
  facet normal -0 0 1
    outer loop
      vertex -10.0637 9.41434 2.5
      vertex -6.92705 7.85317 2.5
      vertex -8.41017 10.4946 2.5
    endloop
  endfacet
  facet normal 0 0 1
    outer loop
      vertex -6.92705 7.85317 2.5
      vertex -10.0637 9.41434 2.5
      vertex -8.42705 6.76336 2.5
    endloop
  endfacet
  facet normal -0 0 1
    outer loop
      vertex -11.2768 7.85568 2.5
      vertex -8.42705 6.76336 2.5
      vertex -10.0637 9.41434 2.5
    endloop
  endfacet
  facet normal -0 0 1
    outer loop
      vertex -5.07295 2.14683 2.5
      vertex 0 0 2.5
      vertex -3.57295 3.23664 2.5
    endloop
  endfacet
  facet normal 0 0 1
    outer loop
      vertex -6 -0.93845 2.5
      vertex 0 0 2.5
      vertex -5.07295 2.14683 2.5
    endloop
  endfacet
  facet normal 0 0 1
    outer loop
      vertex 0 0 2.5
      vertex -6 -0.93845 2.5
      vertex 0 -1 2.5
    endloop
  endfacet
  facet normal 0 0 1
    outer loop
      vertex 0 -1 2.5
      vertex -6 -0.93845 2.5
      vertex -6 -1 2.5
    endloop
  endfacet
  facet normal -1 0 0
    outer loop
      vertex 0 37 0
      vertex 0 11 0
      vertex 0 37 2.5
    endloop
  endfacet
  facet normal -1 0 0
    outer loop
      vertex 0 37 2.5
      vertex 0 48 10
      vertex 0 48 2.5
    endloop
  endfacet
  facet normal -1 0 0
    outer loop
      vertex 0 11 2.5
      vertex 0 37 2.5
      vertex 0 11 0
    endloop
  endfacet
  facet normal -1 0 0
    outer loop
      vertex 0 37 2.5
      vertex 0 11 2.5
      vertex 0 48 10
    endloop
  endfacet
  facet normal -1 0 0
    outer loop
      vertex 0 0 10
      vertex 0 11 2.5
      vertex 0 0 2.5
    endloop
  endfacet
  facet normal -1 0 0
    outer loop
      vertex 0 11 2.5
      vertex 0 0 10
      vertex 0 48 10
    endloop
  endfacet
  facet normal 1 -0 0
    outer loop
      vertex 0 48 2.5
      vertex 0 49 0
      vertex 0 49 2.5
    endloop
  endfacet
  facet normal 1 0 0
    outer loop
      vertex 0 49 0
      vertex 0 48 2.5
      vertex 0 48 0
    endloop
  endfacet
  facet normal 1 -0 0
    outer loop
      vertex 0 -1 2.5
      vertex 0 0 0
      vertex 0 0 2.5
    endloop
  endfacet
  facet normal 1 0 0
    outer loop
      vertex 0 0 0
      vertex 0 -1 2.5
      vertex 0 -1 0
    endloop
  endfacet
  facet normal 0 0 -1
    outer loop
      vertex -6.92705 45.8532 0
      vertex -6 48.9384 0
      vertex -5.07295 45.8532 0
    endloop
  endfacet
  facet normal -0 0 -1
    outer loop
      vertex -6 48.9384 0
      vertex -6.92705 45.8532 0
      vertex -6.49548 48.9795 0
    endloop
  endfacet
  facet normal 0 0 -1
    outer loop
      vertex -6.92705 45.8532 0
      vertex -8.41017 48.4946 0
      vertex -6.49548 48.9795 0
    endloop
  endfacet
  facet normal 0 0 -1
    outer loop
      vertex -10.0637 47.4143 0
      vertex -6.92705 45.8532 0
      vertex -8.42705 44.7634 0
    endloop
  endfacet
  facet normal 0 0 -1
    outer loop
      vertex -11.9182 43.9876 0
      vertex -8.42705 44.7634 0
      vertex -9 43 0
    endloop
  endfacet
  facet normal 0 0 -1
    outer loop
      vertex -11.9182 42.0124 0
      vertex -8.42705 41.2366 0
      vertex -11.2768 40.1443 0
    endloop
  endfacet
  facet normal 0 0 -1
    outer loop
      vertex -6.92705 45.8532 0
      vertex -10.0637 47.4143 0
      vertex -8.41017 48.4946 0
    endloop
  endfacet
  facet normal 0 0 -1
    outer loop
      vertex -8.42705 41.2366 0
      vertex -11.9182 42.0124 0
      vertex -9 43 0
    endloop
  endfacet
  facet normal 0 0 -1
    outer loop
      vertex -8.42705 44.7634 0
      vertex -11.2768 45.8557 0
      vertex -10.0637 47.4143 0
    endloop
  endfacet
  facet normal 0 0 -1
    outer loop
      vertex -11.9182 43.9876 0
      vertex -9 43 0
      vertex -11.9182 42.0124 0
    endloop
  endfacet
  facet normal -0 0 -1
    outer loop
      vertex -8.42705 44.7634 0
      vertex -11.9182 43.9876 0
      vertex -11.2768 45.8557 0
    endloop
  endfacet
  facet normal 0 0 -1
    outer loop
      vertex -6.92705 7.85317 0
      vertex -6 10.9384 0
      vertex -5.07295 7.85317 0
    endloop
  endfacet
  facet normal -0 0 -1
    outer loop
      vertex -6 10.9384 0
      vertex -6.92705 7.85317 0
      vertex -6.49548 10.9795 0
    endloop
  endfacet
  facet normal 0 0 -1
    outer loop
      vertex -6.92705 7.85317 0
      vertex -8.41017 10.4946 0
      vertex -6.49548 10.9795 0
    endloop
  endfacet
  facet normal 0 0 -1
    outer loop
      vertex -10.0637 9.41434 0
      vertex -6.92705 7.85317 0
      vertex -8.42705 6.76336 0
    endloop
  endfacet
  facet normal 0 0 -1
    outer loop
      vertex -11.9182 5.98757 0
      vertex -8.42705 6.76336 0
      vertex -9 5 0
    endloop
  endfacet
  facet normal 0 0 -1
    outer loop
      vertex -11.9182 4.01243 0
      vertex -8.42705 3.23664 0
      vertex -11.2768 2.14432 0
    endloop
  endfacet
  facet normal 0 0 -1
    outer loop
      vertex -6.92705 7.85317 0
      vertex -10.0637 9.41434 0
      vertex -8.41017 10.4946 0
    endloop
  endfacet
  facet normal 0 0 -1
    outer loop
      vertex -8.42705 3.23664 0
      vertex -11.9182 4.01243 0
      vertex -9 5 0
    endloop
  endfacet
  facet normal 0 0 -1
    outer loop
      vertex -8.42705 6.76336 0
      vertex -11.2768 7.85568 0
      vertex -10.0637 9.41434 0
    endloop
  endfacet
  facet normal 0 0 -1
    outer loop
      vertex -11.9182 5.98757 0
      vertex -9 5 0
      vertex -11.9182 4.01243 0
    endloop
  endfacet
  facet normal -0 0 -1
    outer loop
      vertex -8.42705 6.76336 0
      vertex -11.9182 5.98757 0
      vertex -11.2768 7.85568 0
    endloop
  endfacet
  facet normal 0 0 -1
    outer loop
      vertex -6 -0.93845 0
      vertex 0 0 0
      vertex 0 -1 0
    endloop
  endfacet
  facet normal 0 0 -1
    outer loop
      vertex 0 0 0
      vertex -3 5 0
      vertex 0 11 0
    endloop
  endfacet
  facet normal 0 0 -1
    outer loop
      vertex 0 0 0
      vertex -3.57295 3.23664 0
      vertex -3 5 0
    endloop
  endfacet
  facet normal 0 0 -1
    outer loop
      vertex 0 0 0
      vertex -5.07295 2.14683 0
      vertex -3.57295 3.23664 0
    endloop
  endfacet
  facet normal 0 0 -1
    outer loop
      vertex -6 -0.93845 0
      vertex 0 -1 0
      vertex -6 -1 0
    endloop
  endfacet
  facet normal -0 0 -1
    outer loop
      vertex 0 0 0
      vertex -6 -0.93845 0
      vertex -5.07295 2.14683 0
    endloop
  endfacet
  facet normal 0 0 -1
    outer loop
      vertex -6.92705 2.14683 0
      vertex -6 -0.93845 0
      vertex -6.49548 -0.979506 0
    endloop
  endfacet
  facet normal 0 0 -1
    outer loop
      vertex -6 -0.93845 0
      vertex -6.92705 2.14683 0
      vertex -5.07295 2.14683 0
    endloop
  endfacet
  facet normal 0 0 -1
    outer loop
      vertex -8.41017 -0.494639 0
      vertex -6.92705 2.14683 0
      vertex -6.49548 -0.979506 0
    endloop
  endfacet
  facet normal 0 0 -1
    outer loop
      vertex -10.0637 0.585657 0
      vertex -6.92705 2.14683 0
      vertex -8.41017 -0.494639 0
    endloop
  endfacet
  facet normal -0 0 -1
    outer loop
      vertex -6.92705 2.14683 0
      vertex -10.0637 0.585657 0
      vertex -8.42705 3.23664 0
    endloop
  endfacet
  facet normal 0 0 -1
    outer loop
      vertex -11.2768 2.14432 0
      vertex -8.42705 3.23664 0
      vertex -10.0637 0.585657 0
    endloop
  endfacet
  facet normal 0 0 -1
    outer loop
      vertex -3.57295 6.76336 0
      vertex 0 11 0
      vertex -3 5 0
    endloop
  endfacet
  facet normal 0 0 -1
    outer loop
      vertex -5.07295 7.85317 0
      vertex 0 11 0
      vertex -3.57295 6.76336 0
    endloop
  endfacet
  facet normal 0 0 -1
    outer loop
      vertex -6 10.9384 0
      vertex 0 11 0
      vertex -5.07295 7.85317 0
    endloop
  endfacet
  facet normal -0 0 -1
    outer loop
      vertex 0 11 0
      vertex -6 10.9384 0
      vertex -6 11 0
    endloop
  endfacet
  facet normal 0 0 -1
    outer loop
      vertex -5.07295 45.8532 0
      vertex 0 48 0
      vertex -3.57295 44.7634 0
    endloop
  endfacet
  facet normal 0 0 -1
    outer loop
      vertex -6 48.9384 0
      vertex 0 48 0
      vertex -5.07295 45.8532 0
    endloop
  endfacet
  facet normal 0 0 -1
    outer loop
      vertex 0 48 0
      vertex -6 48.9384 0
      vertex 0 49 0
    endloop
  endfacet
  facet normal -0 0 -1
    outer loop
      vertex 0 49 0
      vertex -6 48.9384 0
      vertex -6 49 0
    endloop
  endfacet
  facet normal -0 0 -1
    outer loop
      vertex 29 37 0
      vertex 17.5 36.5 0
      vertex 29 48 0
    endloop
  endfacet
  facet normal 0 0 -1
    outer loop
      vertex 11.5 36.5 0
      vertex 29 48 0
      vertex 17.5 36.5 0
    endloop
  endfacet
  facet normal -0 0 -1
    outer loop
      vertex 11.5 11.5 0
      vertex 0 11 0
      vertex 11.5 36.5 0
    endloop
  endfacet
  facet normal 0 0 -1
    outer loop
      vertex 0 37 0
      vertex 11.5 36.5 0
      vertex 0 11 0
    endloop
  endfacet
  facet normal 0 0 -1
    outer loop
      vertex 0 48 0
      vertex 11.5 36.5 0
      vertex 0 37 0
    endloop
  endfacet
  facet normal 0 0 -1
    outer loop
      vertex 11.5 36.5 0
      vertex 0 48 0
      vertex 29 48 0
    endloop
  endfacet
  facet normal 0 0 -1
    outer loop
      vertex -3 43 0
      vertex 0 48 0
      vertex 0 37 0
    endloop
  endfacet
  facet normal 0 0 -1
    outer loop
      vertex -3.57295 44.7634 0
      vertex 0 48 0
      vertex -3 43 0
    endloop
  endfacet
  facet normal 0 0 -1
    outer loop
      vertex 0 37 0
      vertex -3.57295 41.2366 0
      vertex -3 43 0
    endloop
  endfacet
  facet normal 0 0 -1
    outer loop
      vertex 0 37 0
      vertex -5.07295 40.1468 0
      vertex -3.57295 41.2366 0
    endloop
  endfacet
  facet normal 0 0 -1
    outer loop
      vertex -6 37.0616 0
      vertex 0 37 0
      vertex -6 37 0
    endloop
  endfacet
  facet normal 0 0 -1
    outer loop
      vertex 0 37 0
      vertex -6 37.0616 0
      vertex -5.07295 40.1468 0
    endloop
  endfacet
  facet normal 0 0 -1
    outer loop
      vertex -6.92705 40.1468 0
      vertex -6 37.0616 0
      vertex -6.49548 37.0205 0
    endloop
  endfacet
  facet normal 0 0 -1
    outer loop
      vertex -6 37.0616 0
      vertex -6.92705 40.1468 0
      vertex -5.07295 40.1468 0
    endloop
  endfacet
  facet normal 0 0 -1
    outer loop
      vertex -8.41017 37.5054 0
      vertex -6.92705 40.1468 0
      vertex -6.49548 37.0205 0
    endloop
  endfacet
  facet normal 0 0 -1
    outer loop
      vertex -10.0637 38.5857 0
      vertex -6.92705 40.1468 0
      vertex -8.41017 37.5054 0
    endloop
  endfacet
  facet normal -0 0 -1
    outer loop
      vertex -6.92705 40.1468 0
      vertex -10.0637 38.5857 0
      vertex -8.42705 41.2366 0
    endloop
  endfacet
  facet normal 0 0 -1
    outer loop
      vertex -11.2768 40.1443 0
      vertex -8.42705 41.2366 0
      vertex -10.0637 38.5857 0
    endloop
  endfacet
  facet normal 0 0 -1
    outer loop
      vertex 29 -1 0
      vertex 35 -0.93845 0
      vertex 35 -1 0
    endloop
  endfacet
  facet normal 0 0 -1
    outer loop
      vertex 35 -0.93845 0
      vertex 29 0 0
      vertex 34.0729 2.14683 0
    endloop
  endfacet
  facet normal -0 0 -1
    outer loop
      vertex 34.0729 2.14683 0
      vertex 29 0 0
      vertex 32.5729 3.23664 0
    endloop
  endfacet
  facet normal -0 0 -1
    outer loop
      vertex 35 -0.93845 0
      vertex 29 -1 0
      vertex 29 0 0
    endloop
  endfacet
  facet normal 0 0 -1
    outer loop
      vertex 37.4271 3.23664 0
      vertex 40.9182 4.01243 0
      vertex 40.2768 2.14432 0
    endloop
  endfacet
  facet normal 0 0 -1
    outer loop
      vertex 40.9182 4.01243 0
      vertex 38 5 0
      vertex 40.9182 5.98757 0
    endloop
  endfacet
  facet normal 0 0 -1
    outer loop
      vertex 37.4271 3.23664 0
      vertex 40.2768 2.14432 0
      vertex 39.0637 0.585657 0
    endloop
  endfacet
  facet normal 0 0 -1
    outer loop
      vertex 37.4271 6.76336 0
      vertex 40.9182 5.98757 0
      vertex 38 5 0
    endloop
  endfacet
  facet normal 0 0 -1
    outer loop
      vertex 40.9182 5.98757 0
      vertex 37.4271 6.76336 0
      vertex 40.2768 7.85568 0
    endloop
  endfacet
  facet normal -0 0 -1
    outer loop
      vertex 40.9182 4.01243 0
      vertex 37.4271 3.23664 0
      vertex 38 5 0
    endloop
  endfacet
  facet normal 0 0 -1
    outer loop
      vertex 35.9271 2.14683 0
      vertex 39.0637 0.585657 0
      vertex 37.4102 -0.494639 0
    endloop
  endfacet
  facet normal 0 0 -1
    outer loop
      vertex 39.0637 0.585657 0
      vertex 35.9271 2.14683 0
      vertex 37.4271 3.23664 0
    endloop
  endfacet
  facet normal 0 0 -1
    outer loop
      vertex 35.4955 -0.979506 0
      vertex 35.9271 2.14683 0
      vertex 37.4102 -0.494639 0
    endloop
  endfacet
  facet normal 0 0 -1
    outer loop
      vertex 35 -0.93845 0
      vertex 35.9271 2.14683 0
      vertex 35.4955 -0.979506 0
    endloop
  endfacet
  facet normal -0 0 -1
    outer loop
      vertex 35.9271 2.14683 0
      vertex 35 -0.93845 0
      vertex 34.0729 2.14683 0
    endloop
  endfacet
  facet normal -0 0 -1
    outer loop
      vertex 40.2768 7.85568 0
      vertex 37.4271 6.76336 0
      vertex 39.0637 9.41434 0
    endloop
  endfacet
  facet normal 0 0 -1
    outer loop
      vertex 35.9271 7.85317 0
      vertex 39.0637 9.41434 0
      vertex 37.4271 6.76336 0
    endloop
  endfacet
  facet normal -0 0 -1
    outer loop
      vertex 39.0637 9.41434 0
      vertex 35.9271 7.85317 0
      vertex 37.4102 10.4946 0
    endloop
  endfacet
  facet normal 0 0 -1
    outer loop
      vertex 35.9271 7.85317 0
      vertex 35.4955 10.9795 0
      vertex 37.4102 10.4946 0
    endloop
  endfacet
  facet normal 0 0 -1
    outer loop
      vertex 35.9271 7.85317 0
      vertex 35 10.9384 0
      vertex 35.4955 10.9795 0
    endloop
  endfacet
  facet normal 0 0 -1
    outer loop
      vertex 34.0729 7.85317 0
      vertex 35 10.9384 0
      vertex 35.9271 7.85317 0
    endloop
  endfacet
  facet normal 0 0 -1
    outer loop
      vertex 29 11 0
      vertex 35 10.9384 0
      vertex 34.0729 7.85317 0
    endloop
  endfacet
  facet normal 0 0 -1
    outer loop
      vertex 29 11 0
      vertex 34.0729 7.85317 0
      vertex 32.5729 6.76336 0
    endloop
  endfacet
  facet normal -0 0 -1
    outer loop
      vertex 32.5729 3.23664 0
      vertex 29 0 0
      vertex 32 5 0
    endloop
  endfacet
  facet normal 0 0 -1
    outer loop
      vertex 29 11 0
      vertex 32 5 0
      vertex 29 0 0
    endloop
  endfacet
  facet normal 0 0 -1
    outer loop
      vertex 35 10.9384 0
      vertex 29 11 0
      vertex 35 11 0
    endloop
  endfacet
  facet normal 0 0 -1
    outer loop
      vertex 32 5 0
      vertex 29 11 0
      vertex 32.5729 6.76336 0
    endloop
  endfacet
  facet normal 0 0 -1
    outer loop
      vertex 17.5 11.5 0
      vertex 29 11 0
      vertex 29 0 0
    endloop
  endfacet
  facet normal 0 0 -1
    outer loop
      vertex 29 11 0
      vertex 17.5 11.5 0
      vertex 29 37 0
    endloop
  endfacet
  facet normal 0 0 -1
    outer loop
      vertex 17.5 36.5 0
      vertex 29 37 0
      vertex 17.5 11.5 0
    endloop
  endfacet
  facet normal 0 0 -1
    outer loop
      vertex 29 0 0
      vertex 11.5 11.5 0
      vertex 17.5 11.5 0
    endloop
  endfacet
  facet normal 0 0 -1
    outer loop
      vertex 0 11 0
      vertex 11.5 11.5 0
      vertex 0 0 0
    endloop
  endfacet
  facet normal 0 0 -1
    outer loop
      vertex 0 0 0
      vertex 11.5 11.5 0
      vertex 29 0 0
    endloop
  endfacet
  facet normal 0 0 -1
    outer loop
      vertex 29 37 0
      vertex 35 37.0616 0
      vertex 35 37 0
    endloop
  endfacet
  facet normal -0 0 -1
    outer loop
      vertex 35 37.0616 0
      vertex 29 37 0
      vertex 34.0729 40.1468 0
    endloop
  endfacet
  facet normal -0 0 -1
    outer loop
      vertex 32.5729 41.2366 0
      vertex 29 37 0
      vertex 32 43 0
    endloop
  endfacet
  facet normal -0 0 -1
    outer loop
      vertex 34.0729 40.1468 0
      vertex 29 37 0
      vertex 32.5729 41.2366 0
    endloop
  endfacet
  facet normal 0 0 -1
    outer loop
      vertex 37.4271 41.2366 0
      vertex 40.9182 42.0124 0
      vertex 40.2768 40.1443 0
    endloop
  endfacet
  facet normal 0 0 -1
    outer loop
      vertex 40.9182 42.0124 0
      vertex 38 43 0
      vertex 40.9182 43.9876 0
    endloop
  endfacet
  facet normal 0 0 -1
    outer loop
      vertex 37.4271 41.2366 0
      vertex 40.2768 40.1443 0
      vertex 39.0637 38.5857 0
    endloop
  endfacet
  facet normal 0 0 -1
    outer loop
      vertex 37.4271 44.7634 0
      vertex 40.9182 43.9876 0
      vertex 38 43 0
    endloop
  endfacet
  facet normal 0 0 -1
    outer loop
      vertex 40.9182 43.9876 0
      vertex 37.4271 44.7634 0
      vertex 40.2768 45.8557 0
    endloop
  endfacet
  facet normal -0 0 -1
    outer loop
      vertex 40.9182 42.0124 0
      vertex 37.4271 41.2366 0
      vertex 38 43 0
    endloop
  endfacet
  facet normal 0 0 -1
    outer loop
      vertex 35.9271 40.1468 0
      vertex 39.0637 38.5857 0
      vertex 37.4102 37.5054 0
    endloop
  endfacet
  facet normal 0 0 -1
    outer loop
      vertex 39.0637 38.5857 0
      vertex 35.9271 40.1468 0
      vertex 37.4271 41.2366 0
    endloop
  endfacet
  facet normal 0 0 -1
    outer loop
      vertex 35.4955 37.0205 0
      vertex 35.9271 40.1468 0
      vertex 37.4102 37.5054 0
    endloop
  endfacet
  facet normal 0 0 -1
    outer loop
      vertex 35 37.0616 0
      vertex 35.9271 40.1468 0
      vertex 35.4955 37.0205 0
    endloop
  endfacet
  facet normal -0 0 -1
    outer loop
      vertex 35.9271 40.1468 0
      vertex 35 37.0616 0
      vertex 34.0729 40.1468 0
    endloop
  endfacet
  facet normal -0 0 -1
    outer loop
      vertex 40.2768 45.8557 0
      vertex 37.4271 44.7634 0
      vertex 39.0637 47.4143 0
    endloop
  endfacet
  facet normal 0 0 -1
    outer loop
      vertex 35.9271 45.8532 0
      vertex 39.0637 47.4143 0
      vertex 37.4271 44.7634 0
    endloop
  endfacet
  facet normal -0 0 -1
    outer loop
      vertex 39.0637 47.4143 0
      vertex 35.9271 45.8532 0
      vertex 37.4102 48.4946 0
    endloop
  endfacet
  facet normal 0 0 -1
    outer loop
      vertex 35.9271 45.8532 0
      vertex 35.4955 48.9795 0
      vertex 37.4102 48.4946 0
    endloop
  endfacet
  facet normal 0 0 -1
    outer loop
      vertex 35.9271 45.8532 0
      vertex 35 48.9384 0
      vertex 35.4955 48.9795 0
    endloop
  endfacet
  facet normal 0 0 -1
    outer loop
      vertex 34.0729 45.8532 0
      vertex 35 48.9384 0
      vertex 35.9271 45.8532 0
    endloop
  endfacet
  facet normal 0 0 -1
    outer loop
      vertex 29 48 0
      vertex 35 48.9384 0
      vertex 34.0729 45.8532 0
    endloop
  endfacet
  facet normal 0 0 -1
    outer loop
      vertex 29 48 0
      vertex 34.0729 45.8532 0
      vertex 32.5729 44.7634 0
    endloop
  endfacet
  facet normal 0 0 -1
    outer loop
      vertex 29 48 0
      vertex 32 43 0
      vertex 29 37 0
    endloop
  endfacet
  facet normal 0 0 -1
    outer loop
      vertex 32 43 0
      vertex 29 48 0
      vertex 32.5729 44.7634 0
    endloop
  endfacet
  facet normal 0 0 -1
    outer loop
      vertex 29 49 0
      vertex 35 48.9384 0
      vertex 29 48 0
    endloop
  endfacet
  facet normal 0 0 -1
    outer loop
      vertex 35 48.9384 0
      vertex 29 49 0
      vertex 35 49 0
    endloop
  endfacet
  facet normal 0 -1 0
    outer loop
      vertex -6 -1 0
      vertex 0 -1 2.5
      vertex -6 -1 2.5
    endloop
  endfacet
  facet normal 0 -1 -0
    outer loop
      vertex 0 -1 2.5
      vertex -6 -1 0
      vertex 0 -1 0
    endloop
  endfacet
  facet normal 0 1 -0
    outer loop
      vertex 0 11 0
      vertex -6 11 2.5
      vertex 0 11 2.5
    endloop
  endfacet
  facet normal 0 1 0
    outer loop
      vertex -6 11 2.5
      vertex 0 11 0
      vertex -6 11 0
    endloop
  endfacet
  facet normal -1 0 0
    outer loop
      vertex -11.9182 4.01243 0
      vertex -11.9182 5.98757 2.5
      vertex -11.9182 5.98757 0
    endloop
  endfacet
  facet normal -1 -0 0
    outer loop
      vertex -11.9182 5.98757 2.5
      vertex -11.9182 4.01243 0
      vertex -11.9182 4.01243 2.5
    endloop
  endfacet
  facet normal 0.08258 0.996584 -0
    outer loop
      vertex -6 10.9384 0
      vertex -6.49548 10.9795 2.5
      vertex -6 10.9384 2.5
    endloop
  endfacet
  facet normal 0.08258 0.996584 0
    outer loop
      vertex -6.49548 10.9795 2.5
      vertex -6 10.9384 0
      vertex -6.49548 10.9795 0
    endloop
  endfacet
  facet normal -0.546948 -0.837166 0
    outer loop
      vertex -10.0637 0.585657 0
      vertex -8.41017 -0.494639 2.5
      vertex -10.0637 0.585657 2.5
    endloop
  endfacet
  facet normal -0.546948 -0.837166 -0
    outer loop
      vertex -8.41017 -0.494639 2.5
      vertex -10.0637 0.585657 0
      vertex -8.41017 -0.494639 0
    endloop
  endfacet
  facet normal -0.78914 0.614213 0
    outer loop
      vertex -11.2768 7.85568 0
      vertex -10.0637 9.41434 2.5
      vertex -10.0637 9.41434 0
    endloop
  endfacet
  facet normal -0.78914 0.614213 0
    outer loop
      vertex -10.0637 9.41434 2.5
      vertex -11.2768 7.85568 0
      vertex -11.2768 7.85568 2.5
    endloop
  endfacet
  facet normal -0.945817 0.324699 0
    outer loop
      vertex -11.9182 5.98757 0
      vertex -11.2768 7.85568 2.5
      vertex -11.2768 7.85568 0
    endloop
  endfacet
  facet normal -0.945817 0.324699 0
    outer loop
      vertex -11.2768 7.85568 2.5
      vertex -11.9182 5.98757 0
      vertex -11.9182 5.98757 2.5
    endloop
  endfacet
  facet normal -0.245486 0.9694 0
    outer loop
      vertex -6.49548 10.9795 0
      vertex -8.41017 10.4946 2.5
      vertex -6.49548 10.9795 2.5
    endloop
  endfacet
  facet normal -0.245486 0.9694 0
    outer loop
      vertex -8.41017 10.4946 2.5
      vertex -6.49548 10.9795 0
      vertex -8.41017 10.4946 0
    endloop
  endfacet
  facet normal -0.245486 -0.9694 0
    outer loop
      vertex -8.41017 -0.494639 0
      vertex -6.49548 -0.979506 2.5
      vertex -8.41017 -0.494639 2.5
    endloop
  endfacet
  facet normal -0.245486 -0.9694 -0
    outer loop
      vertex -6.49548 -0.979506 2.5
      vertex -8.41017 -0.494639 0
      vertex -6.49548 -0.979506 0
    endloop
  endfacet
  facet normal -0.945817 -0.324699 0
    outer loop
      vertex -11.2768 2.14432 0
      vertex -11.9182 4.01243 2.5
      vertex -11.9182 4.01243 0
    endloop
  endfacet
  facet normal -0.945817 -0.324699 0
    outer loop
      vertex -11.9182 4.01243 2.5
      vertex -11.2768 2.14432 0
      vertex -11.2768 2.14432 2.5
    endloop
  endfacet
  facet normal -0.546948 0.837166 0
    outer loop
      vertex -8.41017 10.4946 0
      vertex -10.0637 9.41434 2.5
      vertex -8.41017 10.4946 2.5
    endloop
  endfacet
  facet normal -0.546948 0.837166 0
    outer loop
      vertex -10.0637 9.41434 2.5
      vertex -8.41017 10.4946 0
      vertex -10.0637 9.41434 0
    endloop
  endfacet
  facet normal 0.0825792 -0.996585 0
    outer loop
      vertex -6.49548 -0.979506 0
      vertex -6 -0.93845 2.5
      vertex -6.49548 -0.979506 2.5
    endloop
  endfacet
  facet normal 0.0825792 -0.996585 0
    outer loop
      vertex -6 -0.93845 2.5
      vertex -6.49548 -0.979506 0
      vertex -6 -0.93845 0
    endloop
  endfacet
  facet normal -0.78914 -0.614213 0
    outer loop
      vertex -10.0637 0.585657 0
      vertex -11.2768 2.14432 2.5
      vertex -11.2768 2.14432 0
    endloop
  endfacet
  facet normal -0.78914 -0.614213 0
    outer loop
      vertex -11.2768 2.14432 2.5
      vertex -10.0637 0.585657 0
      vertex -10.0637 0.585657 2.5
    endloop
  endfacet
  facet normal -0.951057 -0.309017 0
    outer loop
      vertex -3 5 0
      vertex -3.57295 6.76336 2.5
      vertex -3.57295 6.76336 0
    endloop
  endfacet
  facet normal -0.951057 -0.309017 0
    outer loop
      vertex -3.57295 6.76336 2.5
      vertex -3 5 0
      vertex -3 5 2.5
    endloop
  endfacet
  facet normal 0.951056 -0.309017 0
    outer loop
      vertex -9 5 2.5
      vertex -8.42705 6.76336 0
      vertex -8.42705 6.76336 2.5
    endloop
  endfacet
  facet normal 0.951056 -0.309017 0
    outer loop
      vertex -8.42705 6.76336 0
      vertex -9 5 2.5
      vertex -9 5 0
    endloop
  endfacet
  facet normal 0 -1 0
    outer loop
      vertex -6.92705 7.85317 0
      vertex -5.07295 7.85317 2.5
      vertex -6.92705 7.85317 2.5
    endloop
  endfacet
  facet normal 0 -1 -0
    outer loop
      vertex -5.07295 7.85317 2.5
      vertex -6.92705 7.85317 0
      vertex -5.07295 7.85317 0
    endloop
  endfacet
  facet normal -0.587785 -0.809017 0
    outer loop
      vertex -5.07295 7.85317 0
      vertex -3.57295 6.76336 2.5
      vertex -5.07295 7.85317 2.5
    endloop
  endfacet
  facet normal -0.587785 -0.809017 -0
    outer loop
      vertex -3.57295 6.76336 2.5
      vertex -5.07295 7.85317 0
      vertex -3.57295 6.76336 0
    endloop
  endfacet
  facet normal 0.587785 -0.809017 0
    outer loop
      vertex -8.42705 6.76336 0
      vertex -6.92705 7.85317 2.5
      vertex -8.42705 6.76336 2.5
    endloop
  endfacet
  facet normal 0.587785 -0.809017 0
    outer loop
      vertex -6.92705 7.85317 2.5
      vertex -8.42705 6.76336 0
      vertex -6.92705 7.85317 0
    endloop
  endfacet
  facet normal -0.951057 0.309017 0
    outer loop
      vertex -3.57295 3.23664 0
      vertex -3 5 2.5
      vertex -3 5 0
    endloop
  endfacet
  facet normal -0.951057 0.309017 0
    outer loop
      vertex -3 5 2.5
      vertex -3.57295 3.23664 0
      vertex -3.57295 3.23664 2.5
    endloop
  endfacet
  facet normal 0.951056 0.309017 0
    outer loop
      vertex -8.42705 3.23664 2.5
      vertex -9 5 0
      vertex -9 5 2.5
    endloop
  endfacet
  facet normal 0.951056 0.309017 0
    outer loop
      vertex -9 5 0
      vertex -8.42705 3.23664 2.5
      vertex -8.42705 3.23664 0
    endloop
  endfacet
  facet normal 0 1 -0
    outer loop
      vertex -5.07295 2.14683 0
      vertex -6.92705 2.14683 2.5
      vertex -5.07295 2.14683 2.5
    endloop
  endfacet
  facet normal 0 1 0
    outer loop
      vertex -6.92705 2.14683 2.5
      vertex -5.07295 2.14683 0
      vertex -6.92705 2.14683 0
    endloop
  endfacet
  facet normal -0.587785 0.809017 0
    outer loop
      vertex -3.57295 3.23664 0
      vertex -5.07295 2.14683 2.5
      vertex -3.57295 3.23664 2.5
    endloop
  endfacet
  facet normal -0.587785 0.809017 0
    outer loop
      vertex -5.07295 2.14683 2.5
      vertex -3.57295 3.23664 0
      vertex -5.07295 2.14683 0
    endloop
  endfacet
  facet normal 0.587785 0.809017 -0
    outer loop
      vertex -6.92705 2.14683 0
      vertex -8.42705 3.23664 2.5
      vertex -6.92705 2.14683 2.5
    endloop
  endfacet
  facet normal 0.587785 0.809017 0
    outer loop
      vertex -8.42705 3.23664 2.5
      vertex -6.92705 2.14683 0
      vertex -8.42705 3.23664 0
    endloop
  endfacet
  facet normal 0 0 1
    outer loop
      vertex 25.5 45.5 2.5
      vertex 17.5 36.5 2.5
      vertex 25.5 3.5 2.5
    endloop
  endfacet
  facet normal 0 0 1
    outer loop
      vertex 25.5 45.5 2.5
      vertex 11.5 36.5 2.5
      vertex 17.5 36.5 2.5
    endloop
  endfacet
  facet normal 0 0 1
    outer loop
      vertex 3.5 3.5 2.5
      vertex 11.5 36.5 2.5
      vertex 3.5 45.5 2.5
    endloop
  endfacet
  facet normal -0 0 1
    outer loop
      vertex 3.5 45.5 2.5
      vertex 11.5 36.5 2.5
      vertex 25.5 45.5 2.5
    endloop
  endfacet
  facet normal -0 0 1
    outer loop
      vertex 17.5 11.5 2.5
      vertex 25.5 3.5 2.5
      vertex 17.5 36.5 2.5
    endloop
  endfacet
  facet normal -0 0 1
    outer loop
      vertex 11.5 11.5 2.5
      vertex 25.5 3.5 2.5
      vertex 17.5 11.5 2.5
    endloop
  endfacet
  facet normal 0 0 1
    outer loop
      vertex 11.5 11.5 2.5
      vertex 3.5 3.5 2.5
      vertex 25.5 3.5 2.5
    endloop
  endfacet
  facet normal 0 0 1
    outer loop
      vertex 11.5 36.5 2.5
      vertex 3.5 3.5 2.5
      vertex 11.5 11.5 2.5
    endloop
  endfacet
  facet normal 1 0 0
    outer loop
      vertex 29 48 10
      vertex 29 37 2.5
      vertex 29 48 2.5
    endloop
  endfacet
  facet normal 1 0 0
    outer loop
      vertex 29 37 2.5
      vertex 29 11 2.5
      vertex 29 37 0
    endloop
  endfacet
  facet normal 1 0 0
    outer loop
      vertex 29 48 10
      vertex 29 11 2.5
      vertex 29 37 2.5
    endloop
  endfacet
  facet normal 1 -0 0
    outer loop
      vertex 29 0 10
      vertex 29 11 2.5
      vertex 29 48 10
    endloop
  endfacet
  facet normal 1 0 0
    outer loop
      vertex 29 11 2.5
      vertex 29 0 10
      vertex 29 0 2.5
    endloop
  endfacet
  facet normal 1 0 0
    outer loop
      vertex 29 37 0
      vertex 29 11 2.5
      vertex 29 11 0
    endloop
  endfacet
  facet normal -1 0 0
    outer loop
      vertex 29 48 0
      vertex 29 49 2.5
      vertex 29 49 0
    endloop
  endfacet
  facet normal -1 -0 0
    outer loop
      vertex 29 49 2.5
      vertex 29 48 0
      vertex 29 48 2.5
    endloop
  endfacet
  facet normal -1 0 0
    outer loop
      vertex 29 -1 0
      vertex 29 0 2.5
      vertex 29 0 0
    endloop
  endfacet
  facet normal -1 -0 0
    outer loop
      vertex 29 0 2.5
      vertex 29 -1 0
      vertex 29 -1 2.5
    endloop
  endfacet
  facet normal 0 -1 0
    outer loop
      vertex 0 0 2.5
      vertex 29 0 10
      vertex 0 0 10
    endloop
  endfacet
  facet normal 0 -1 0
    outer loop
      vertex 0 0 2.5
      vertex 29 0 2.5
      vertex 29 0 10
    endloop
  endfacet
  facet normal 0 -1 0
    outer loop
      vertex 0 0 0
      vertex 29 0 2.5
      vertex 0 0 2.5
    endloop
  endfacet
  facet normal 0 -1 -0
    outer loop
      vertex 29 0 2.5
      vertex 0 0 0
      vertex 29 0 0
    endloop
  endfacet
  facet normal 0 1 0
    outer loop
      vertex 29 48 10
      vertex 25.51 48 7.38995
      vertex 25.5 48 10
    endloop
  endfacet
  facet normal 0 1 0
    outer loop
      vertex 29 48 10
      vertex 26.5 48 6.4
      vertex 25.51 48 7.38995
    endloop
  endfacet
  facet normal 0 1 -0
    outer loop
      vertex 29 48 2.5
      vertex 26.5 48 6.4
      vertex 29 48 10
    endloop
  endfacet
  facet normal 0 1 -0
    outer loop
      vertex 29 48 0
      vertex 26.5 48 5
      vertex 29 48 2.5
    endloop
  endfacet
  facet normal 0 1 0
    outer loop
      vertex 26.5 48 6.4
      vertex 29 48 2.5
      vertex 26.5 48 5
    endloop
  endfacet
  facet normal 0 1 0
    outer loop
      vertex 25.5 48 10
      vertex 25.51 48 7.38995
      vertex 25.5 48 7.3799
    endloop
  endfacet
  facet normal 0 1 0
    outer loop
      vertex 3.5 48 10
      vertex 3.48995 48 7.38995
      vertex 0 48 10
    endloop
  endfacet
  facet normal -0 1 0
    outer loop
      vertex 3.48995 48 7.38995
      vertex 3.5 48 10
      vertex 3.5 48 7.3799
    endloop
  endfacet
  facet normal 0 1 -0
    outer loop
      vertex 2.5 48 6.4
      vertex 0 48 10
      vertex 3.48995 48 7.38995
    endloop
  endfacet
  facet normal 0 1 0
    outer loop
      vertex 0 48 2.5
      vertex 2.5 48 6.4
      vertex 2.5 48 5
    endloop
  endfacet
  facet normal 0 1 0
    outer loop
      vertex 2.5 48 6.4
      vertex 0 48 2.5
      vertex 0 48 10
    endloop
  endfacet
  facet normal 0 1 0
    outer loop
      vertex 26.5 48 5
      vertex 29 48 0
      vertex 2.5 48 5
    endloop
  endfacet
  facet normal 0 1 0
    outer loop
      vertex 0 48 0
      vertex 2.5 48 5
      vertex 29 48 0
    endloop
  endfacet
  facet normal 0 1 0
    outer loop
      vertex 2.5 48 5
      vertex 0 48 0
      vertex 0 48 2.5
    endloop
  endfacet
  facet normal 0 0 1
    outer loop
      vertex 3.5 48 10
      vertex 0 48 10
      vertex 3.5 2.5 10
    endloop
  endfacet
  facet normal 0 0 1
    outer loop
      vertex 25.5 2.5 10
      vertex 29 48 10
      vertex 25.5 48 10
    endloop
  endfacet
  facet normal 0 0 1
    outer loop
      vertex 29 48 10
      vertex 25.5 2.5 10
      vertex 29 0 10
    endloop
  endfacet
  facet normal -0 0 1
    outer loop
      vertex 3.5 2.5 10
      vertex 29 0 10
      vertex 25.5 2.5 10
    endloop
  endfacet
  facet normal 0 0 1
    outer loop
      vertex 3.5 2.5 10
      vertex 0 0 10
      vertex 29 0 10
    endloop
  endfacet
  facet normal 0 0 1
    outer loop
      vertex 0 0 10
      vertex 3.5 2.5 10
      vertex 0 48 10
    endloop
  endfacet
  facet normal 1 -0 0
    outer loop
      vertex 3.5 3.5 5
      vertex 3.5 45.5 2.5
      vertex 3.5 45.5 5
    endloop
  endfacet
  facet normal 1 0 0
    outer loop
      vertex 3.5 45.5 2.5
      vertex 3.5 3.5 5
      vertex 3.5 3.5 2.5
    endloop
  endfacet
  facet normal 1 -0 0
    outer loop
      vertex 3.5 2.5 10
      vertex 3.5 48 7.3799
      vertex 3.5 48 10
    endloop
  endfacet
  facet normal 1 0 0
    outer loop
      vertex 3.5 48 7.3799
      vertex 3.5 2.5 10
      vertex 3.5 2.5 7.3799
    endloop
  endfacet
  facet normal 0 1 -0
    outer loop
      vertex 25.5 3.5 2.5
      vertex 3.5 3.5 5
      vertex 25.5 3.5 5
    endloop
  endfacet
  facet normal 0 1 0
    outer loop
      vertex 3.5 3.5 5
      vertex 25.5 3.5 2.5
      vertex 3.5 3.5 2.5
    endloop
  endfacet
  facet normal 0 -1 0
    outer loop
      vertex 3.5 45.5 2.5
      vertex 25.5 45.5 5
      vertex 3.5 45.5 5
    endloop
  endfacet
  facet normal 0 -1 -0
    outer loop
      vertex 25.5 45.5 5
      vertex 3.5 45.5 2.5
      vertex 25.5 45.5 2.5
    endloop
  endfacet
  facet normal -1 0 0
    outer loop
      vertex 25.5 3.5 2.5
      vertex 25.5 45.5 5
      vertex 25.5 45.5 2.5
    endloop
  endfacet
  facet normal -1 -0 0
    outer loop
      vertex 25.5 45.5 5
      vertex 25.5 3.5 2.5
      vertex 25.5 3.5 5
    endloop
  endfacet
  facet normal -1 0 0
    outer loop
      vertex 25.5 2.5 7.3799
      vertex 25.5 48 10
      vertex 25.5 48 7.3799
    endloop
  endfacet
  facet normal -1 -0 0
    outer loop
      vertex 25.5 48 10
      vertex 25.5 2.5 7.3799
      vertex 25.5 2.5 10
    endloop
  endfacet
  facet normal 1 -0 0
    outer loop
      vertex 35 -1 2.5
      vertex 35 -0.93845 0
      vertex 35 -0.93845 2.5
    endloop
  endfacet
  facet normal 1 0 0
    outer loop
      vertex 35 -0.93845 0
      vertex 35 -1 2.5
      vertex 35 -1 0
    endloop
  endfacet
  facet normal 1 -0 0
    outer loop
      vertex 35 10.9384 2.5
      vertex 35 11 0
      vertex 35 11 2.5
    endloop
  endfacet
  facet normal 1 0 0
    outer loop
      vertex 35 11 0
      vertex 35 10.9384 2.5
      vertex 35 10.9384 0
    endloop
  endfacet
  facet normal -0 0 1
    outer loop
      vertex 29 11 2.5
      vertex 35 10.9384 2.5
      vertex 35 11 2.5
    endloop
  endfacet
  facet normal 0 0 1
    outer loop
      vertex 35 10.9384 2.5
      vertex 29 11 2.5
      vertex 34.0729 7.85317 2.5
    endloop
  endfacet
  facet normal 0 0 1
    outer loop
      vertex 32.5729 6.76336 2.5
      vertex 29 11 2.5
      vertex 32 5 2.5
    endloop
  endfacet
  facet normal 0 0 1
    outer loop
      vertex 34.0729 7.85317 2.5
      vertex 29 11 2.5
      vertex 32.5729 6.76336 2.5
    endloop
  endfacet
  facet normal -0 0 1
    outer loop
      vertex 37.4271 6.76336 2.5
      vertex 40.9182 5.98757 2.5
      vertex 40.2768 7.85568 2.5
    endloop
  endfacet
  facet normal 0 0 1
    outer loop
      vertex 40.9182 5.98757 2.5
      vertex 38 5 2.5
      vertex 40.9182 4.01243 2.5
    endloop
  endfacet
  facet normal 0 0 1
    outer loop
      vertex 37.4271 6.76336 2.5
      vertex 40.2768 7.85568 2.5
      vertex 39.0637 9.41434 2.5
    endloop
  endfacet
  facet normal 0 0 1
    outer loop
      vertex 37.4271 3.23664 2.5
      vertex 40.9182 4.01243 2.5
      vertex 38 5 2.5
    endloop
  endfacet
  facet normal 0 0 1
    outer loop
      vertex 40.9182 4.01243 2.5
      vertex 37.4271 3.23664 2.5
      vertex 40.2768 2.14432 2.5
    endloop
  endfacet
  facet normal 0 0 1
    outer loop
      vertex 40.9182 5.98757 2.5
      vertex 37.4271 6.76336 2.5
      vertex 38 5 2.5
    endloop
  endfacet
  facet normal 0 0 1
    outer loop
      vertex 35.9271 7.85317 2.5
      vertex 39.0637 9.41434 2.5
      vertex 37.4102 10.4946 2.5
    endloop
  endfacet
  facet normal 0 0 1
    outer loop
      vertex 39.0637 9.41434 2.5
      vertex 35.9271 7.85317 2.5
      vertex 37.4271 6.76336 2.5
    endloop
  endfacet
  facet normal 0 0 1
    outer loop
      vertex 35.4955 10.9795 2.5
      vertex 35.9271 7.85317 2.5
      vertex 37.4102 10.4946 2.5
    endloop
  endfacet
  facet normal -0 0 1
    outer loop
      vertex 35 10.9384 2.5
      vertex 35.9271 7.85317 2.5
      vertex 35.4955 10.9795 2.5
    endloop
  endfacet
  facet normal 0 0 1
    outer loop
      vertex 35.9271 7.85317 2.5
      vertex 35 10.9384 2.5
      vertex 34.0729 7.85317 2.5
    endloop
  endfacet
  facet normal 0 0 1
    outer loop
      vertex 40.2768 2.14432 2.5
      vertex 37.4271 3.23664 2.5
      vertex 39.0637 0.585657 2.5
    endloop
  endfacet
  facet normal -0 0 1
    outer loop
      vertex 35.9271 2.14683 2.5
      vertex 39.0637 0.585657 2.5
      vertex 37.4271 3.23664 2.5
    endloop
  endfacet
  facet normal 0 0 1
    outer loop
      vertex 39.0637 0.585657 2.5
      vertex 35.9271 2.14683 2.5
      vertex 37.4102 -0.494639 2.5
    endloop
  endfacet
  facet normal 0 0 1
    outer loop
      vertex 35.9271 2.14683 2.5
      vertex 35.4955 -0.979506 2.5
      vertex 37.4102 -0.494639 2.5
    endloop
  endfacet
  facet normal 0 0 1
    outer loop
      vertex 35.9271 2.14683 2.5
      vertex 35 -0.93845 2.5
      vertex 35.4955 -0.979506 2.5
    endloop
  endfacet
  facet normal -0 0 1
    outer loop
      vertex 34.0729 2.14683 2.5
      vertex 35 -0.93845 2.5
      vertex 35.9271 2.14683 2.5
    endloop
  endfacet
  facet normal -0 0 1
    outer loop
      vertex 29 0 2.5
      vertex 35 -0.93845 2.5
      vertex 34.0729 2.14683 2.5
    endloop
  endfacet
  facet normal 0 0 1
    outer loop
      vertex 29 0 2.5
      vertex 34.0729 2.14683 2.5
      vertex 32.5729 3.23664 2.5
    endloop
  endfacet
  facet normal 0 0 1
    outer loop
      vertex 29 0 2.5
      vertex 32 5 2.5
      vertex 29 11 2.5
    endloop
  endfacet
  facet normal 0 0 1
    outer loop
      vertex 32 5 2.5
      vertex 29 0 2.5
      vertex 32.5729 3.23664 2.5
    endloop
  endfacet
  facet normal 0 0 1
    outer loop
      vertex 29 -1 2.5
      vertex 35 -0.93845 2.5
      vertex 29 0 2.5
    endloop
  endfacet
  facet normal 0 0 1
    outer loop
      vertex 35 -0.93845 2.5
      vertex 29 -1 2.5
      vertex 35 -1 2.5
    endloop
  endfacet
  facet normal 0 -1 0
    outer loop
      vertex 29 -1 0
      vertex 35 -1 2.5
      vertex 29 -1 2.5
    endloop
  endfacet
  facet normal 0 -1 -0
    outer loop
      vertex 35 -1 2.5
      vertex 29 -1 0
      vertex 35 -1 0
    endloop
  endfacet
  facet normal 0 1 -0
    outer loop
      vertex 35 11 0
      vertex 29 11 2.5
      vertex 35 11 2.5
    endloop
  endfacet
  facet normal 0 1 0
    outer loop
      vertex 29 11 2.5
      vertex 35 11 0
      vertex 29 11 0
    endloop
  endfacet
  facet normal 1 -0 0
    outer loop
      vertex 40.9182 4.01243 2.5
      vertex 40.9182 5.98757 0
      vertex 40.9182 5.98757 2.5
    endloop
  endfacet
  facet normal 1 0 0
    outer loop
      vertex 40.9182 5.98757 0
      vertex 40.9182 4.01243 2.5
      vertex 40.9182 4.01243 0
    endloop
  endfacet
  facet normal -0.08258 0.996584 0
    outer loop
      vertex 35.4955 10.9795 0
      vertex 35 10.9384 2.5
      vertex 35.4955 10.9795 2.5
    endloop
  endfacet
  facet normal -0.08258 0.996584 0
    outer loop
      vertex 35 10.9384 2.5
      vertex 35.4955 10.9795 0
      vertex 35 10.9384 0
    endloop
  endfacet
  facet normal 0.546948 -0.837167 0
    outer loop
      vertex 37.4102 -0.494639 0
      vertex 39.0637 0.585657 2.5
      vertex 37.4102 -0.494639 2.5
    endloop
  endfacet
  facet normal 0.546948 -0.837167 0
    outer loop
      vertex 39.0637 0.585657 2.5
      vertex 37.4102 -0.494639 0
      vertex 39.0637 0.585657 0
    endloop
  endfacet
  facet normal 0.789141 0.614212 0
    outer loop
      vertex 40.2768 7.85568 2.5
      vertex 39.0637 9.41434 0
      vertex 39.0637 9.41434 2.5
    endloop
  endfacet
  facet normal 0.789141 0.614212 0
    outer loop
      vertex 39.0637 9.41434 0
      vertex 40.2768 7.85568 2.5
      vertex 40.2768 7.85568 0
    endloop
  endfacet
  facet normal 0.945817 0.3247 0
    outer loop
      vertex 40.9182 5.98757 2.5
      vertex 40.2768 7.85568 0
      vertex 40.2768 7.85568 2.5
    endloop
  endfacet
  facet normal 0.945817 0.3247 0
    outer loop
      vertex 40.2768 7.85568 0
      vertex 40.9182 5.98757 2.5
      vertex 40.9182 5.98757 0
    endloop
  endfacet
  facet normal 0.245486 0.9694 -0
    outer loop
      vertex 37.4102 10.4946 0
      vertex 35.4955 10.9795 2.5
      vertex 37.4102 10.4946 2.5
    endloop
  endfacet
  facet normal 0.245486 0.9694 0
    outer loop
      vertex 35.4955 10.9795 2.5
      vertex 37.4102 10.4946 0
      vertex 35.4955 10.9795 0
    endloop
  endfacet
  facet normal 0.245486 -0.9694 0
    outer loop
      vertex 35.4955 -0.979506 0
      vertex 37.4102 -0.494639 2.5
      vertex 35.4955 -0.979506 2.5
    endloop
  endfacet
  facet normal 0.245486 -0.9694 0
    outer loop
      vertex 37.4102 -0.494639 2.5
      vertex 35.4955 -0.979506 0
      vertex 37.4102 -0.494639 0
    endloop
  endfacet
  facet normal 0.945817 -0.3247 0
    outer loop
      vertex 40.2768 2.14432 2.5
      vertex 40.9182 4.01243 0
      vertex 40.9182 4.01243 2.5
    endloop
  endfacet
  facet normal 0.945817 -0.3247 0
    outer loop
      vertex 40.9182 4.01243 0
      vertex 40.2768 2.14432 2.5
      vertex 40.2768 2.14432 0
    endloop
  endfacet
  facet normal 0.546948 0.837167 -0
    outer loop
      vertex 39.0637 9.41434 0
      vertex 37.4102 10.4946 2.5
      vertex 39.0637 9.41434 2.5
    endloop
  endfacet
  facet normal 0.546948 0.837167 0
    outer loop
      vertex 37.4102 10.4946 2.5
      vertex 39.0637 9.41434 0
      vertex 37.4102 10.4946 0
    endloop
  endfacet
  facet normal -0.0825792 -0.996585 0
    outer loop
      vertex 35 -0.93845 0
      vertex 35.4955 -0.979506 2.5
      vertex 35 -0.93845 2.5
    endloop
  endfacet
  facet normal -0.0825792 -0.996585 -0
    outer loop
      vertex 35.4955 -0.979506 2.5
      vertex 35 -0.93845 0
      vertex 35.4955 -0.979506 0
    endloop
  endfacet
  facet normal 0.789141 -0.614212 0
    outer loop
      vertex 39.0637 0.585657 2.5
      vertex 40.2768 2.14432 0
      vertex 40.2768 2.14432 2.5
    endloop
  endfacet
  facet normal 0.789141 -0.614212 0
    outer loop
      vertex 40.2768 2.14432 0
      vertex 39.0637 0.585657 2.5
      vertex 39.0637 0.585657 0
    endloop
  endfacet
  facet normal 0.951057 -0.309017 0
    outer loop
      vertex 32 5 2.5
      vertex 32.5729 6.76336 0
      vertex 32.5729 6.76336 2.5
    endloop
  endfacet
  facet normal 0.951057 -0.309017 0
    outer loop
      vertex 32.5729 6.76336 0
      vertex 32 5 2.5
      vertex 32 5 0
    endloop
  endfacet
  facet normal -0.951057 -0.309017 0
    outer loop
      vertex 38 5 0
      vertex 37.4271 6.76336 2.5
      vertex 37.4271 6.76336 0
    endloop
  endfacet
  facet normal -0.951057 -0.309017 0
    outer loop
      vertex 37.4271 6.76336 2.5
      vertex 38 5 0
      vertex 38 5 2.5
    endloop
  endfacet
  facet normal 0 -1 0
    outer loop
      vertex 34.0729 7.85317 0
      vertex 35.9271 7.85317 2.5
      vertex 34.0729 7.85317 2.5
    endloop
  endfacet
  facet normal 0 -1 -0
    outer loop
      vertex 35.9271 7.85317 2.5
      vertex 34.0729 7.85317 0
      vertex 35.9271 7.85317 0
    endloop
  endfacet
  facet normal 0.587785 -0.809017 0
    outer loop
      vertex 32.5729 6.76336 0
      vertex 34.0729 7.85317 2.5
      vertex 32.5729 6.76336 2.5
    endloop
  endfacet
  facet normal 0.587785 -0.809017 0
    outer loop
      vertex 34.0729 7.85317 2.5
      vertex 32.5729 6.76336 0
      vertex 34.0729 7.85317 0
    endloop
  endfacet
  facet normal -0.587785 -0.809017 0
    outer loop
      vertex 35.9271 7.85317 0
      vertex 37.4271 6.76336 2.5
      vertex 35.9271 7.85317 2.5
    endloop
  endfacet
  facet normal -0.587785 -0.809017 -0
    outer loop
      vertex 37.4271 6.76336 2.5
      vertex 35.9271 7.85317 0
      vertex 37.4271 6.76336 0
    endloop
  endfacet
  facet normal 0.951057 0.309017 0
    outer loop
      vertex 32.5729 3.23664 2.5
      vertex 32 5 0
      vertex 32 5 2.5
    endloop
  endfacet
  facet normal 0.951057 0.309017 0
    outer loop
      vertex 32 5 0
      vertex 32.5729 3.23664 2.5
      vertex 32.5729 3.23664 0
    endloop
  endfacet
  facet normal -0.951057 0.309017 0
    outer loop
      vertex 37.4271 3.23664 0
      vertex 38 5 2.5
      vertex 38 5 0
    endloop
  endfacet
  facet normal -0.951057 0.309017 0
    outer loop
      vertex 38 5 2.5
      vertex 37.4271 3.23664 0
      vertex 37.4271 3.23664 2.5
    endloop
  endfacet
  facet normal 0 1 -0
    outer loop
      vertex 35.9271 2.14683 0
      vertex 34.0729 2.14683 2.5
      vertex 35.9271 2.14683 2.5
    endloop
  endfacet
  facet normal 0 1 0
    outer loop
      vertex 34.0729 2.14683 2.5
      vertex 35.9271 2.14683 0
      vertex 34.0729 2.14683 0
    endloop
  endfacet
  facet normal 0.587785 0.809017 -0
    outer loop
      vertex 34.0729 2.14683 0
      vertex 32.5729 3.23664 2.5
      vertex 34.0729 2.14683 2.5
    endloop
  endfacet
  facet normal 0.587785 0.809017 0
    outer loop
      vertex 32.5729 3.23664 2.5
      vertex 34.0729 2.14683 0
      vertex 32.5729 3.23664 0
    endloop
  endfacet
  facet normal -0.587785 0.809017 0
    outer loop
      vertex 37.4271 3.23664 0
      vertex 35.9271 2.14683 2.5
      vertex 37.4271 3.23664 2.5
    endloop
  endfacet
  facet normal -0.587785 0.809017 0
    outer loop
      vertex 35.9271 2.14683 2.5
      vertex 37.4271 3.23664 0
      vertex 35.9271 2.14683 0
    endloop
  endfacet
  facet normal -1 0 0
    outer loop
      vertex -6 37 0
      vertex -6 37.0616 2.5
      vertex -6 37.0616 0
    endloop
  endfacet
  facet normal -1 -0 0
    outer loop
      vertex -6 37.0616 2.5
      vertex -6 37 0
      vertex -6 37 2.5
    endloop
  endfacet
  facet normal -1 0 0
    outer loop
      vertex -6 48.9384 0
      vertex -6 49 2.5
      vertex -6 49 0
    endloop
  endfacet
  facet normal -1 -0 0
    outer loop
      vertex -6 49 2.5
      vertex -6 48.9384 0
      vertex -6 48.9384 2.5
    endloop
  endfacet
  facet normal -0 0 1
    outer loop
      vertex -6.92705 40.1468 2.5
      vertex -6 37.0616 2.5
      vertex -5.07295 40.1468 2.5
    endloop
  endfacet
  facet normal 0 0 1
    outer loop
      vertex -6 37.0616 2.5
      vertex -6.92705 40.1468 2.5
      vertex -6.49548 37.0205 2.5
    endloop
  endfacet
  facet normal 0 0 1
    outer loop
      vertex -6.92705 40.1468 2.5
      vertex -8.41017 37.5054 2.5
      vertex -6.49548 37.0205 2.5
    endloop
  endfacet
  facet normal 0 0 1
    outer loop
      vertex -10.0637 38.5857 2.5
      vertex -6.92705 40.1468 2.5
      vertex -8.42705 41.2366 2.5
    endloop
  endfacet
  facet normal -0 0 1
    outer loop
      vertex -11.9182 42.0124 2.5
      vertex -8.42705 41.2366 2.5
      vertex -9 43 2.5
    endloop
  endfacet
  facet normal 0 0 1
    outer loop
      vertex -11.9182 43.9876 2.5
      vertex -8.42705 44.7634 2.5
      vertex -11.2768 45.8557 2.5
    endloop
  endfacet
  facet normal 0 0 1
    outer loop
      vertex -6.92705 40.1468 2.5
      vertex -10.0637 38.5857 2.5
      vertex -8.41017 37.5054 2.5
    endloop
  endfacet
  facet normal 0 0 1
    outer loop
      vertex -8.42705 44.7634 2.5
      vertex -11.9182 43.9876 2.5
      vertex -9 43 2.5
    endloop
  endfacet
  facet normal 0 0 1
    outer loop
      vertex -8.42705 41.2366 2.5
      vertex -11.2768 40.1443 2.5
      vertex -10.0637 38.5857 2.5
    endloop
  endfacet
  facet normal 0 0 1
    outer loop
      vertex -11.9182 42.0124 2.5
      vertex -9 43 2.5
      vertex -11.9182 43.9876 2.5
    endloop
  endfacet
  facet normal 0 0 1
    outer loop
      vertex -8.42705 41.2366 2.5
      vertex -11.9182 42.0124 2.5
      vertex -11.2768 40.1443 2.5
    endloop
  endfacet
  facet normal -0 0 1
    outer loop
      vertex -6 48.9384 2.5
      vertex 0 48 2.5
      vertex 0 49 2.5
    endloop
  endfacet
  facet normal 0 0 1
    outer loop
      vertex 0 48 2.5
      vertex -3 43 2.5
      vertex 0 37 2.5
    endloop
  endfacet
  facet normal 0 0 1
    outer loop
      vertex 0 48 2.5
      vertex -3.57295 44.7634 2.5
      vertex -3 43 2.5
    endloop
  endfacet
  facet normal 0 0 1
    outer loop
      vertex 0 48 2.5
      vertex -5.07295 45.8532 2.5
      vertex -3.57295 44.7634 2.5
    endloop
  endfacet
  facet normal 0 0 1
    outer loop
      vertex -6 48.9384 2.5
      vertex 0 49 2.5
      vertex -6 49 2.5
    endloop
  endfacet
  facet normal 0 0 1
    outer loop
      vertex 0 48 2.5
      vertex -6 48.9384 2.5
      vertex -5.07295 45.8532 2.5
    endloop
  endfacet
  facet normal 0 0 1
    outer loop
      vertex -6.92705 45.8532 2.5
      vertex -6 48.9384 2.5
      vertex -6.49548 48.9795 2.5
    endloop
  endfacet
  facet normal 0 0 1
    outer loop
      vertex -6 48.9384 2.5
      vertex -6.92705 45.8532 2.5
      vertex -5.07295 45.8532 2.5
    endloop
  endfacet
  facet normal -0 0 1
    outer loop
      vertex -8.41017 48.4946 2.5
      vertex -6.92705 45.8532 2.5
      vertex -6.49548 48.9795 2.5
    endloop
  endfacet
  facet normal -0 0 1
    outer loop
      vertex -10.0637 47.4143 2.5
      vertex -6.92705 45.8532 2.5
      vertex -8.41017 48.4946 2.5
    endloop
  endfacet
  facet normal 0 0 1
    outer loop
      vertex -6.92705 45.8532 2.5
      vertex -10.0637 47.4143 2.5
      vertex -8.42705 44.7634 2.5
    endloop
  endfacet
  facet normal -0 0 1
    outer loop
      vertex -11.2768 45.8557 2.5
      vertex -8.42705 44.7634 2.5
      vertex -10.0637 47.4143 2.5
    endloop
  endfacet
  facet normal -0 0 1
    outer loop
      vertex -3.57295 41.2366 2.5
      vertex 0 37 2.5
      vertex -3 43 2.5
    endloop
  endfacet
  facet normal -0 0 1
    outer loop
      vertex -5.07295 40.1468 2.5
      vertex 0 37 2.5
      vertex -3.57295 41.2366 2.5
    endloop
  endfacet
  facet normal -0 0 1
    outer loop
      vertex -6 37.0616 2.5
      vertex 0 37 2.5
      vertex -5.07295 40.1468 2.5
    endloop
  endfacet
  facet normal 0 0 1
    outer loop
      vertex 0 37 2.5
      vertex -6 37.0616 2.5
      vertex -6 37 2.5
    endloop
  endfacet
  facet normal 0 -1 0
    outer loop
      vertex -6 37 0
      vertex 0 37 2.5
      vertex -6 37 2.5
    endloop
  endfacet
  facet normal 0 -1 -0
    outer loop
      vertex 0 37 2.5
      vertex -6 37 0
      vertex 0 37 0
    endloop
  endfacet
  facet normal 0 1 -0
    outer loop
      vertex 0 49 0
      vertex -6 49 2.5
      vertex 0 49 2.5
    endloop
  endfacet
  facet normal 0 1 0
    outer loop
      vertex -6 49 2.5
      vertex 0 49 0
      vertex -6 49 0
    endloop
  endfacet
  facet normal -1 0 0
    outer loop
      vertex -11.9182 42.0124 0
      vertex -11.9182 43.9876 2.5
      vertex -11.9182 43.9876 0
    endloop
  endfacet
  facet normal -1 -0 0
    outer loop
      vertex -11.9182 43.9876 2.5
      vertex -11.9182 42.0124 0
      vertex -11.9182 42.0124 2.5
    endloop
  endfacet
  facet normal 0.0825819 0.996584 -0
    outer loop
      vertex -6 48.9384 0
      vertex -6.49548 48.9795 2.5
      vertex -6 48.9384 2.5
    endloop
  endfacet
  facet normal 0.0825819 0.996584 0
    outer loop
      vertex -6.49548 48.9795 2.5
      vertex -6 48.9384 0
      vertex -6.49548 48.9795 0
    endloop
  endfacet
  facet normal -0.546948 -0.837167 0
    outer loop
      vertex -10.0637 38.5857 0
      vertex -8.41017 37.5054 2.5
      vertex -10.0637 38.5857 2.5
    endloop
  endfacet
  facet normal -0.546948 -0.837167 -0
    outer loop
      vertex -8.41017 37.5054 2.5
      vertex -10.0637 38.5857 0
      vertex -8.41017 37.5054 0
    endloop
  endfacet
  facet normal -0.789141 0.614212 0
    outer loop
      vertex -11.2768 45.8557 0
      vertex -10.0637 47.4143 2.5
      vertex -10.0637 47.4143 0
    endloop
  endfacet
  facet normal -0.789141 0.614212 0
    outer loop
      vertex -10.0637 47.4143 2.5
      vertex -11.2768 45.8557 0
      vertex -11.2768 45.8557 2.5
    endloop
  endfacet
  facet normal -0.945817 0.3247 0
    outer loop
      vertex -11.9182 43.9876 0
      vertex -11.2768 45.8557 2.5
      vertex -11.2768 45.8557 0
    endloop
  endfacet
  facet normal -0.945817 0.3247 0
    outer loop
      vertex -11.2768 45.8557 2.5
      vertex -11.9182 43.9876 0
      vertex -11.9182 43.9876 2.5
    endloop
  endfacet
  facet normal -0.245486 0.9694 0
    outer loop
      vertex -6.49548 48.9795 0
      vertex -8.41017 48.4946 2.5
      vertex -6.49548 48.9795 2.5
    endloop
  endfacet
  facet normal -0.245486 0.9694 0
    outer loop
      vertex -8.41017 48.4946 2.5
      vertex -6.49548 48.9795 0
      vertex -8.41017 48.4946 0
    endloop
  endfacet
  facet normal -0.245486 -0.9694 0
    outer loop
      vertex -8.41017 37.5054 0
      vertex -6.49548 37.0205 2.5
      vertex -8.41017 37.5054 2.5
    endloop
  endfacet
  facet normal -0.245486 -0.9694 -0
    outer loop
      vertex -6.49548 37.0205 2.5
      vertex -8.41017 37.5054 0
      vertex -6.49548 37.0205 0
    endloop
  endfacet
  facet normal -0.945817 -0.3247 0
    outer loop
      vertex -11.2768 40.1443 0
      vertex -11.9182 42.0124 2.5
      vertex -11.9182 42.0124 0
    endloop
  endfacet
  facet normal -0.945817 -0.3247 0
    outer loop
      vertex -11.9182 42.0124 2.5
      vertex -11.2768 40.1443 0
      vertex -11.2768 40.1443 2.5
    endloop
  endfacet
  facet normal -0.546948 0.837167 0
    outer loop
      vertex -8.41017 48.4946 0
      vertex -10.0637 47.4143 2.5
      vertex -8.41017 48.4946 2.5
    endloop
  endfacet
  facet normal -0.546948 0.837167 0
    outer loop
      vertex -10.0637 47.4143 2.5
      vertex -8.41017 48.4946 0
      vertex -10.0637 47.4143 0
    endloop
  endfacet
  facet normal 0.0825819 -0.996584 0
    outer loop
      vertex -6.49548 37.0205 0
      vertex -6 37.0616 2.5
      vertex -6.49548 37.0205 2.5
    endloop
  endfacet
  facet normal 0.0825819 -0.996584 0
    outer loop
      vertex -6 37.0616 2.5
      vertex -6.49548 37.0205 0
      vertex -6 37.0616 0
    endloop
  endfacet
  facet normal -0.789141 -0.614212 0
    outer loop
      vertex -10.0637 38.5857 0
      vertex -11.2768 40.1443 2.5
      vertex -11.2768 40.1443 0
    endloop
  endfacet
  facet normal -0.789141 -0.614212 0
    outer loop
      vertex -11.2768 40.1443 2.5
      vertex -10.0637 38.5857 0
      vertex -10.0637 38.5857 2.5
    endloop
  endfacet
  facet normal -0.951057 -0.309017 0
    outer loop
      vertex -3 43 0
      vertex -3.57295 44.7634 2.5
      vertex -3.57295 44.7634 0
    endloop
  endfacet
  facet normal -0.951057 -0.309017 0
    outer loop
      vertex -3.57295 44.7634 2.5
      vertex -3 43 0
      vertex -3 43 2.5
    endloop
  endfacet
  facet normal 0.951056 -0.309017 0
    outer loop
      vertex -9 43 2.5
      vertex -8.42705 44.7634 0
      vertex -8.42705 44.7634 2.5
    endloop
  endfacet
  facet normal 0.951056 -0.309017 0
    outer loop
      vertex -8.42705 44.7634 0
      vertex -9 43 2.5
      vertex -9 43 0
    endloop
  endfacet
  facet normal 0 -1 0
    outer loop
      vertex -6.92705 45.8532 0
      vertex -5.07295 45.8532 2.5
      vertex -6.92705 45.8532 2.5
    endloop
  endfacet
  facet normal 0 -1 -0
    outer loop
      vertex -5.07295 45.8532 2.5
      vertex -6.92705 45.8532 0
      vertex -5.07295 45.8532 0
    endloop
  endfacet
  facet normal -0.587785 -0.809017 0
    outer loop
      vertex -5.07295 45.8532 0
      vertex -3.57295 44.7634 2.5
      vertex -5.07295 45.8532 2.5
    endloop
  endfacet
  facet normal -0.587785 -0.809017 -0
    outer loop
      vertex -3.57295 44.7634 2.5
      vertex -5.07295 45.8532 0
      vertex -3.57295 44.7634 0
    endloop
  endfacet
  facet normal 0.587785 -0.809017 0
    outer loop
      vertex -8.42705 44.7634 0
      vertex -6.92705 45.8532 2.5
      vertex -8.42705 44.7634 2.5
    endloop
  endfacet
  facet normal 0.587785 -0.809017 0
    outer loop
      vertex -6.92705 45.8532 2.5
      vertex -8.42705 44.7634 0
      vertex -6.92705 45.8532 0
    endloop
  endfacet
  facet normal -0.951057 0.309017 0
    outer loop
      vertex -3.57295 41.2366 0
      vertex -3 43 2.5
      vertex -3 43 0
    endloop
  endfacet
  facet normal -0.951057 0.309017 0
    outer loop
      vertex -3 43 2.5
      vertex -3.57295 41.2366 0
      vertex -3.57295 41.2366 2.5
    endloop
  endfacet
  facet normal 0.951056 0.309017 0
    outer loop
      vertex -8.42705 41.2366 2.5
      vertex -9 43 0
      vertex -9 43 2.5
    endloop
  endfacet
  facet normal 0.951056 0.309017 0
    outer loop
      vertex -9 43 0
      vertex -8.42705 41.2366 2.5
      vertex -8.42705 41.2366 0
    endloop
  endfacet
  facet normal 0 1 -0
    outer loop
      vertex -5.07295 40.1468 0
      vertex -6.92705 40.1468 2.5
      vertex -5.07295 40.1468 2.5
    endloop
  endfacet
  facet normal 0 1 0
    outer loop
      vertex -6.92705 40.1468 2.5
      vertex -5.07295 40.1468 0
      vertex -6.92705 40.1468 0
    endloop
  endfacet
  facet normal -0.587785 0.809017 0
    outer loop
      vertex -3.57295 41.2366 0
      vertex -5.07295 40.1468 2.5
      vertex -3.57295 41.2366 2.5
    endloop
  endfacet
  facet normal -0.587785 0.809017 0
    outer loop
      vertex -5.07295 40.1468 2.5
      vertex -3.57295 41.2366 0
      vertex -5.07295 40.1468 0
    endloop
  endfacet
  facet normal 0.587785 0.809017 -0
    outer loop
      vertex -6.92705 40.1468 0
      vertex -8.42705 41.2366 2.5
      vertex -6.92705 40.1468 2.5
    endloop
  endfacet
  facet normal 0.587785 0.809017 0
    outer loop
      vertex -8.42705 41.2366 2.5
      vertex -6.92705 40.1468 0
      vertex -8.42705 41.2366 0
    endloop
  endfacet
  facet normal 1 -0 0
    outer loop
      vertex 35 37 2.5
      vertex 35 37.0616 0
      vertex 35 37.0616 2.5
    endloop
  endfacet
  facet normal 1 0 0
    outer loop
      vertex 35 37.0616 0
      vertex 35 37 2.5
      vertex 35 37 0
    endloop
  endfacet
  facet normal 1 -0 0
    outer loop
      vertex 35 48.9384 2.5
      vertex 35 49 0
      vertex 35 49 2.5
    endloop
  endfacet
  facet normal 1 0 0
    outer loop
      vertex 35 49 0
      vertex 35 48.9384 2.5
      vertex 35 48.9384 0
    endloop
  endfacet
  facet normal -0 0 1
    outer loop
      vertex 29 49 2.5
      vertex 35 48.9384 2.5
      vertex 35 49 2.5
    endloop
  endfacet
  facet normal 0 0 1
    outer loop
      vertex 35 48.9384 2.5
      vertex 29 48 2.5
      vertex 34.0729 45.8532 2.5
    endloop
  endfacet
  facet normal 0 0 1
    outer loop
      vertex 34.0729 45.8532 2.5
      vertex 29 48 2.5
      vertex 32.5729 44.7634 2.5
    endloop
  endfacet
  facet normal 0 0 1
    outer loop
      vertex 35 48.9384 2.5
      vertex 29 49 2.5
      vertex 29 48 2.5
    endloop
  endfacet
  facet normal -0 0 1
    outer loop
      vertex 37.4271 44.7634 2.5
      vertex 40.9182 43.9876 2.5
      vertex 40.2768 45.8557 2.5
    endloop
  endfacet
  facet normal 0 0 1
    outer loop
      vertex 40.9182 43.9876 2.5
      vertex 38 43 2.5
      vertex 40.9182 42.0124 2.5
    endloop
  endfacet
  facet normal 0 0 1
    outer loop
      vertex 37.4271 44.7634 2.5
      vertex 40.2768 45.8557 2.5
      vertex 39.0637 47.4143 2.5
    endloop
  endfacet
  facet normal 0 0 1
    outer loop
      vertex 37.4271 41.2366 2.5
      vertex 40.9182 42.0124 2.5
      vertex 38 43 2.5
    endloop
  endfacet
  facet normal 0 0 1
    outer loop
      vertex 40.9182 42.0124 2.5
      vertex 37.4271 41.2366 2.5
      vertex 40.2768 40.1443 2.5
    endloop
  endfacet
  facet normal 0 0 1
    outer loop
      vertex 40.9182 43.9876 2.5
      vertex 37.4271 44.7634 2.5
      vertex 38 43 2.5
    endloop
  endfacet
  facet normal 0 0 1
    outer loop
      vertex 35.9271 45.8532 2.5
      vertex 39.0637 47.4143 2.5
      vertex 37.4102 48.4946 2.5
    endloop
  endfacet
  facet normal 0 0 1
    outer loop
      vertex 39.0637 47.4143 2.5
      vertex 35.9271 45.8532 2.5
      vertex 37.4271 44.7634 2.5
    endloop
  endfacet
  facet normal 0 0 1
    outer loop
      vertex 35.4955 48.9795 2.5
      vertex 35.9271 45.8532 2.5
      vertex 37.4102 48.4946 2.5
    endloop
  endfacet
  facet normal -0 0 1
    outer loop
      vertex 35 48.9384 2.5
      vertex 35.9271 45.8532 2.5
      vertex 35.4955 48.9795 2.5
    endloop
  endfacet
  facet normal 0 0 1
    outer loop
      vertex 35.9271 45.8532 2.5
      vertex 35 48.9384 2.5
      vertex 34.0729 45.8532 2.5
    endloop
  endfacet
  facet normal 0 0 1
    outer loop
      vertex 40.2768 40.1443 2.5
      vertex 37.4271 41.2366 2.5
      vertex 39.0637 38.5857 2.5
    endloop
  endfacet
  facet normal -0 0 1
    outer loop
      vertex 35.9271 40.1468 2.5
      vertex 39.0637 38.5857 2.5
      vertex 37.4271 41.2366 2.5
    endloop
  endfacet
  facet normal 0 0 1
    outer loop
      vertex 39.0637 38.5857 2.5
      vertex 35.9271 40.1468 2.5
      vertex 37.4102 37.5054 2.5
    endloop
  endfacet
  facet normal 0 0 1
    outer loop
      vertex 35.9271 40.1468 2.5
      vertex 35.4955 37.0205 2.5
      vertex 37.4102 37.5054 2.5
    endloop
  endfacet
  facet normal 0 0 1
    outer loop
      vertex 35.9271 40.1468 2.5
      vertex 35 37.0616 2.5
      vertex 35.4955 37.0205 2.5
    endloop
  endfacet
  facet normal -0 0 1
    outer loop
      vertex 34.0729 40.1468 2.5
      vertex 35 37.0616 2.5
      vertex 35.9271 40.1468 2.5
    endloop
  endfacet
  facet normal 0 0 1
    outer loop
      vertex 29 37 2.5
      vertex 35 37.0616 2.5
      vertex 34.0729 40.1468 2.5
    endloop
  endfacet
  facet normal 0 0 1
    outer loop
      vertex 29 37 2.5
      vertex 34.0729 40.1468 2.5
      vertex 32.5729 41.2366 2.5
    endloop
  endfacet
  facet normal 0 0 1
    outer loop
      vertex 32.5729 44.7634 2.5
      vertex 29 48 2.5
      vertex 32 43 2.5
    endloop
  endfacet
  facet normal 0 0 1
    outer loop
      vertex 29 37 2.5
      vertex 32 43 2.5
      vertex 29 48 2.5
    endloop
  endfacet
  facet normal 0 0 1
    outer loop
      vertex 35 37.0616 2.5
      vertex 29 37 2.5
      vertex 35 37 2.5
    endloop
  endfacet
  facet normal 0 0 1
    outer loop
      vertex 32 43 2.5
      vertex 29 37 2.5
      vertex 32.5729 41.2366 2.5
    endloop
  endfacet
  facet normal 0 -1 0
    outer loop
      vertex 29 37 0
      vertex 35 37 2.5
      vertex 29 37 2.5
    endloop
  endfacet
  facet normal 0 -1 -0
    outer loop
      vertex 35 37 2.5
      vertex 29 37 0
      vertex 35 37 0
    endloop
  endfacet
  facet normal 0 1 -0
    outer loop
      vertex 35 49 0
      vertex 29 49 2.5
      vertex 35 49 2.5
    endloop
  endfacet
  facet normal 0 1 0
    outer loop
      vertex 29 49 2.5
      vertex 35 49 0
      vertex 29 49 0
    endloop
  endfacet
  facet normal 1 -0 0
    outer loop
      vertex 40.9182 42.0124 2.5
      vertex 40.9182 43.9876 0
      vertex 40.9182 43.9876 2.5
    endloop
  endfacet
  facet normal 1 0 0
    outer loop
      vertex 40.9182 43.9876 0
      vertex 40.9182 42.0124 2.5
      vertex 40.9182 42.0124 0
    endloop
  endfacet
  facet normal -0.0825819 0.996584 0
    outer loop
      vertex 35.4955 48.9795 0
      vertex 35 48.9384 2.5
      vertex 35.4955 48.9795 2.5
    endloop
  endfacet
  facet normal -0.0825819 0.996584 0
    outer loop
      vertex 35 48.9384 2.5
      vertex 35.4955 48.9795 0
      vertex 35 48.9384 0
    endloop
  endfacet
  facet normal 0.546947 -0.837167 0
    outer loop
      vertex 37.4102 37.5054 0
      vertex 39.0637 38.5857 2.5
      vertex 37.4102 37.5054 2.5
    endloop
  endfacet
  facet normal 0.546947 -0.837167 0
    outer loop
      vertex 39.0637 38.5857 2.5
      vertex 37.4102 37.5054 0
      vertex 39.0637 38.5857 0
    endloop
  endfacet
  facet normal 0.789142 0.614211 0
    outer loop
      vertex 40.2768 45.8557 2.5
      vertex 39.0637 47.4143 0
      vertex 39.0637 47.4143 2.5
    endloop
  endfacet
  facet normal 0.789142 0.614211 0
    outer loop
      vertex 39.0637 47.4143 0
      vertex 40.2768 45.8557 2.5
      vertex 40.2768 45.8557 0
    endloop
  endfacet
  facet normal 0.945817 0.324701 0
    outer loop
      vertex 40.9182 43.9876 2.5
      vertex 40.2768 45.8557 0
      vertex 40.2768 45.8557 2.5
    endloop
  endfacet
  facet normal 0.945817 0.324701 0
    outer loop
      vertex 40.2768 45.8557 0
      vertex 40.9182 43.9876 2.5
      vertex 40.9182 43.9876 0
    endloop
  endfacet
  facet normal 0.245486 0.9694 -0
    outer loop
      vertex 37.4102 48.4946 0
      vertex 35.4955 48.9795 2.5
      vertex 37.4102 48.4946 2.5
    endloop
  endfacet
  facet normal 0.245486 0.9694 0
    outer loop
      vertex 35.4955 48.9795 2.5
      vertex 37.4102 48.4946 0
      vertex 35.4955 48.9795 0
    endloop
  endfacet
  facet normal 0.245486 -0.9694 0
    outer loop
      vertex 35.4955 37.0205 0
      vertex 37.4102 37.5054 2.5
      vertex 35.4955 37.0205 2.5
    endloop
  endfacet
  facet normal 0.245486 -0.9694 0
    outer loop
      vertex 37.4102 37.5054 2.5
      vertex 35.4955 37.0205 0
      vertex 37.4102 37.5054 0
    endloop
  endfacet
  facet normal 0.945817 -0.324701 0
    outer loop
      vertex 40.2768 40.1443 2.5
      vertex 40.9182 42.0124 0
      vertex 40.9182 42.0124 2.5
    endloop
  endfacet
  facet normal 0.945817 -0.324701 0
    outer loop
      vertex 40.9182 42.0124 0
      vertex 40.2768 40.1443 2.5
      vertex 40.2768 40.1443 0
    endloop
  endfacet
  facet normal 0.546947 0.837167 -0
    outer loop
      vertex 39.0637 47.4143 0
      vertex 37.4102 48.4946 2.5
      vertex 39.0637 47.4143 2.5
    endloop
  endfacet
  facet normal 0.546947 0.837167 0
    outer loop
      vertex 37.4102 48.4946 2.5
      vertex 39.0637 47.4143 0
      vertex 37.4102 48.4946 0
    endloop
  endfacet
  facet normal -0.0825819 -0.996584 0
    outer loop
      vertex 35 37.0616 0
      vertex 35.4955 37.0205 2.5
      vertex 35 37.0616 2.5
    endloop
  endfacet
  facet normal -0.0825819 -0.996584 -0
    outer loop
      vertex 35.4955 37.0205 2.5
      vertex 35 37.0616 0
      vertex 35.4955 37.0205 0
    endloop
  endfacet
  facet normal 0.789142 -0.614211 0
    outer loop
      vertex 39.0637 38.5857 2.5
      vertex 40.2768 40.1443 0
      vertex 40.2768 40.1443 2.5
    endloop
  endfacet
  facet normal 0.789142 -0.614211 0
    outer loop
      vertex 40.2768 40.1443 0
      vertex 39.0637 38.5857 2.5
      vertex 39.0637 38.5857 0
    endloop
  endfacet
  facet normal 0.951057 -0.309017 0
    outer loop
      vertex 32 43 2.5
      vertex 32.5729 44.7634 0
      vertex 32.5729 44.7634 2.5
    endloop
  endfacet
  facet normal 0.951057 -0.309017 0
    outer loop
      vertex 32.5729 44.7634 0
      vertex 32 43 2.5
      vertex 32 43 0
    endloop
  endfacet
  facet normal -0.951057 -0.309017 0
    outer loop
      vertex 38 43 0
      vertex 37.4271 44.7634 2.5
      vertex 37.4271 44.7634 0
    endloop
  endfacet
  facet normal -0.951057 -0.309017 0
    outer loop
      vertex 37.4271 44.7634 2.5
      vertex 38 43 0
      vertex 38 43 2.5
    endloop
  endfacet
  facet normal 0 -1 0
    outer loop
      vertex 34.0729 45.8532 0
      vertex 35.9271 45.8532 2.5
      vertex 34.0729 45.8532 2.5
    endloop
  endfacet
  facet normal 0 -1 -0
    outer loop
      vertex 35.9271 45.8532 2.5
      vertex 34.0729 45.8532 0
      vertex 35.9271 45.8532 0
    endloop
  endfacet
  facet normal 0.587785 -0.809017 0
    outer loop
      vertex 32.5729 44.7634 0
      vertex 34.0729 45.8532 2.5
      vertex 32.5729 44.7634 2.5
    endloop
  endfacet
  facet normal 0.587785 -0.809017 0
    outer loop
      vertex 34.0729 45.8532 2.5
      vertex 32.5729 44.7634 0
      vertex 34.0729 45.8532 0
    endloop
  endfacet
  facet normal -0.587785 -0.809017 0
    outer loop
      vertex 35.9271 45.8532 0
      vertex 37.4271 44.7634 2.5
      vertex 35.9271 45.8532 2.5
    endloop
  endfacet
  facet normal -0.587785 -0.809017 -0
    outer loop
      vertex 37.4271 44.7634 2.5
      vertex 35.9271 45.8532 0
      vertex 37.4271 44.7634 0
    endloop
  endfacet
  facet normal 0.951057 0.309017 0
    outer loop
      vertex 32.5729 41.2366 2.5
      vertex 32 43 0
      vertex 32 43 2.5
    endloop
  endfacet
  facet normal 0.951057 0.309017 0
    outer loop
      vertex 32 43 0
      vertex 32.5729 41.2366 2.5
      vertex 32.5729 41.2366 0
    endloop
  endfacet
  facet normal -0.951057 0.309017 0
    outer loop
      vertex 37.4271 41.2366 0
      vertex 38 43 2.5
      vertex 38 43 0
    endloop
  endfacet
  facet normal -0.951057 0.309017 0
    outer loop
      vertex 38 43 2.5
      vertex 37.4271 41.2366 0
      vertex 37.4271 41.2366 2.5
    endloop
  endfacet
  facet normal 0 1 -0
    outer loop
      vertex 35.9271 40.1468 0
      vertex 34.0729 40.1468 2.5
      vertex 35.9271 40.1468 2.5
    endloop
  endfacet
  facet normal 0 1 0
    outer loop
      vertex 34.0729 40.1468 2.5
      vertex 35.9271 40.1468 0
      vertex 34.0729 40.1468 0
    endloop
  endfacet
  facet normal 0.587785 0.809017 -0
    outer loop
      vertex 34.0729 40.1468 0
      vertex 32.5729 41.2366 2.5
      vertex 34.0729 40.1468 2.5
    endloop
  endfacet
  facet normal 0.587785 0.809017 0
    outer loop
      vertex 32.5729 41.2366 2.5
      vertex 34.0729 40.1468 0
      vertex 32.5729 41.2366 0
    endloop
  endfacet
  facet normal -0.587785 0.809017 0
    outer loop
      vertex 37.4271 41.2366 0
      vertex 35.9271 40.1468 2.5
      vertex 37.4271 41.2366 2.5
    endloop
  endfacet
  facet normal -0.587785 0.809017 0
    outer loop
      vertex 35.9271 40.1468 2.5
      vertex 37.4271 41.2366 0
      vertex 35.9271 40.1468 0
    endloop
  endfacet
  facet normal 1 -0 0
    outer loop
      vertex 2.5 2.5 6.4
      vertex 2.5 48 5
      vertex 2.5 48 6.4
    endloop
  endfacet
  facet normal 1 0 0
    outer loop
      vertex 2.5 48 5
      vertex 2.5 2.5 6.4
      vertex 2.5 2.5 5
    endloop
  endfacet
  facet normal -1 0 0
    outer loop
      vertex 26.5 2.5 5
      vertex 26.5 48 6.4
      vertex 26.5 48 5
    endloop
  endfacet
  facet normal -1 -0 0
    outer loop
      vertex 26.5 48 6.4
      vertex 26.5 2.5 5
      vertex 26.5 2.5 6.4
    endloop
  endfacet
  facet normal 0 0 1
    outer loop
      vertex 26.5 48 5
      vertex 25.5 45.5 5
      vertex 26.5 2.5 5
    endloop
  endfacet
  facet normal 0 0 1
    outer loop
      vertex 26.5 48 5
      vertex 3.5 45.5 5
      vertex 25.5 45.5 5
    endloop
  endfacet
  facet normal 0 0 1
    outer loop
      vertex 2.5 2.5 5
      vertex 3.5 45.5 5
      vertex 2.5 48 5
    endloop
  endfacet
  facet normal -0 0 1
    outer loop
      vertex 2.5 48 5
      vertex 3.5 45.5 5
      vertex 26.5 48 5
    endloop
  endfacet
  facet normal -0 0 1
    outer loop
      vertex 25.5 3.5 5
      vertex 26.5 2.5 5
      vertex 25.5 45.5 5
    endloop
  endfacet
  facet normal -0 0 1
    outer loop
      vertex 3.5 3.5 5
      vertex 26.5 2.5 5
      vertex 25.5 3.5 5
    endloop
  endfacet
  facet normal 0 0 1
    outer loop
      vertex 3.5 3.5 5
      vertex 2.5 2.5 5
      vertex 26.5 2.5 5
    endloop
  endfacet
  facet normal 0 0 1
    outer loop
      vertex 3.5 45.5 5
      vertex 2.5 2.5 5
      vertex 3.5 3.5 5
    endloop
  endfacet
  facet normal 0 1 -0
    outer loop
      vertex 26.5 2.5 5
      vertex 25.5 2.5 7.3799
      vertex 26.5 2.5 6.4
    endloop
  endfacet
  facet normal 0 1 0
    outer loop
      vertex 26.5 2.5 6.4
      vertex 25.5 2.5 7.3799
      vertex 25.51 2.5 7.38995
    endloop
  endfacet
  facet normal 0 1 -0
    outer loop
      vertex 25.5 2.5 7.3799
      vertex 3.5 2.5 10
      vertex 25.5 2.5 10
    endloop
  endfacet
  facet normal 0 1 0
    outer loop
      vertex 3.5 2.5 10
      vertex 25.5 2.5 7.3799
      vertex 3.5 2.5 7.3799
    endloop
  endfacet
  facet normal 0 1 0
    outer loop
      vertex 3.5 2.5 7.3799
      vertex 2.5 2.5 6.4
      vertex 3.48995 2.5 7.38995
    endloop
  endfacet
  facet normal 0 1 0
    outer loop
      vertex 25.5 2.5 7.3799
      vertex 26.5 2.5 5
      vertex 3.5 2.5 7.3799
    endloop
  endfacet
  facet normal 0 1 0
    outer loop
      vertex 2.5 2.5 5
      vertex 3.5 2.5 7.3799
      vertex 26.5 2.5 5
    endloop
  endfacet
  facet normal 0 1 0
    outer loop
      vertex 3.5 2.5 7.3799
      vertex 2.5 2.5 5
      vertex 2.5 2.5 6.4
    endloop
  endfacet
  facet normal 0.707107 0 -0.707107
    outer loop
      vertex 3.48995 2.5 7.38995
      vertex 2.5 48 6.4
      vertex 3.48995 48 7.38995
    endloop
  endfacet
  facet normal 0.707107 0 -0.707107
    outer loop
      vertex 2.5 48 6.4
      vertex 3.48995 2.5 7.38995
      vertex 2.5 2.5 6.4
    endloop
  endfacet
  facet normal -0.707107 0 -0.707107
    outer loop
      vertex 3.5 2.5 7.3799
      vertex 3.48995 48 7.38995
      vertex 3.5 48 7.3799
    endloop
  endfacet
  facet normal -0.707107 -0 -0.707107
    outer loop
      vertex 3.48995 48 7.38995
      vertex 3.5 2.5 7.3799
      vertex 3.48995 2.5 7.38995
    endloop
  endfacet
  facet normal -0.707106 0 -0.707107
    outer loop
      vertex 25.51 2.5 7.38995
      vertex 26.5 48 6.4
      vertex 26.5 2.5 6.4
    endloop
  endfacet
  facet normal -0.707106 0 -0.707107
    outer loop
      vertex 26.5 48 6.4
      vertex 25.51 2.5 7.38995
      vertex 25.51 48 7.38995
    endloop
  endfacet
  facet normal 0.707107 0 -0.707107
    outer loop
      vertex 25.51 2.5 7.38995
      vertex 25.5 48 7.3799
      vertex 25.51 48 7.38995
    endloop
  endfacet
  facet normal 0.707107 0 -0.707107
    outer loop
      vertex 25.5 48 7.3799
      vertex 25.51 2.5 7.38995
      vertex 25.5 2.5 7.3799
    endloop
  endfacet
  facet normal 1 -0 0
    outer loop
      vertex 11.5 11.5 2.5
      vertex 11.5 36.5 0
      vertex 11.5 36.5 2.5
    endloop
  endfacet
  facet normal 1 0 0
    outer loop
      vertex 11.5 36.5 0
      vertex 11.5 11.5 2.5
      vertex 11.5 11.5 0
    endloop
  endfacet
  facet normal -1 0 0
    outer loop
      vertex 17.5 11.5 0
      vertex 17.5 36.5 2.5
      vertex 17.5 36.5 0
    endloop
  endfacet
  facet normal -1 -0 0
    outer loop
      vertex 17.5 36.5 2.5
      vertex 17.5 11.5 0
      vertex 17.5 11.5 2.5
    endloop
  endfacet
  facet normal 0 -1 0
    outer loop
      vertex 11.5 36.5 0
      vertex 17.5 36.5 2.5
      vertex 11.5 36.5 2.5
    endloop
  endfacet
  facet normal 0 -1 -0
    outer loop
      vertex 17.5 36.5 2.5
      vertex 11.5 36.5 0
      vertex 17.5 36.5 0
    endloop
  endfacet
  facet normal 0 1 -0
    outer loop
      vertex 17.5 11.5 0
      vertex 11.5 11.5 2.5
      vertex 17.5 11.5 2.5
    endloop
  endfacet
  facet normal 0 1 0
    outer loop
      vertex 11.5 11.5 2.5
      vertex 17.5 11.5 0
      vertex 11.5 11.5 0
    endloop
  endfacet
endsolid OpenSCAD_Model
